<svg id="Capa_1" enable-background="new 0 0 512 512" height="512" viewBox="0 0 512 512" width="512" xmlns="http://www.w3.org/2000/svg"><g><circle cx="256" cy="105" r="15"/><path d="m301 225c0-24.814-20.186-45-45-45s-45 20.186-45 45v36.707c14.145 5.043 29.145 8.293 45 8.293s30.855-3.25 45-8.293z"/><path d="m181 247.147v-22.147c0-41.353 33.647-75 75-75-24.814 0-45-20.186-45-45s20.186-45 45-45 45 20.186 45 45-20.186 45-45 45c41.353 0 75 33.647 75 75v22.147c36.141-24.249 60-65.446 60-112.147 0-74.443-60.557-135-135-135s-135 60.557-135 135c0 46.701 23.859 87.898 60 112.147z"/><path d="m91 324.216v165.566l103.482-82.787z"/><path d="m256 417.796 144.728-115.796h-289.464z"/><path d="m421 489.776v-165.563l-103.484 82.782z"/><path d="m256 456.204-37.493-29.991-107.234 85.787h289.459l-107.239-85.789z"/><path d="m487.211 225-51.211-51.211-51.211 51.211 21.211 21.211 15-15v38.789h30v-38.789l15 15z"/><path d="m91 270v-38.789l15 15 21.211-21.211-51.211-51.211-51.211 51.211 21.211 21.211 15-15v38.789z"/></g></svg>