<?xml version="1.0" encoding="iso-8859-1"?>
<!-- Generator: Adobe Illustrator 19.0.0, SVG Export Plug-In . SVG Version: 6.00 Build 0)  -->
<svg version="1.1" id="Capa_1" xmlns="http://www.w3.org/2000/svg" xmlns:xlink="http://www.w3.org/1999/xlink" x="0px" y="0px"
	 viewBox="0 0 512 512" style="enable-background:new 0 0 512 512;" xml:space="preserve">
<path style="fill:#7986E8;" d="M447.499,296.499C444.8,299.5,440.9,301,437,301s-7.8-1.5-10.499-4.501L347,217.299l-79.501,79.2
	c-5.7,6-15.298,6-20.999,0c-6-5.7-6-15.3,0-21l90-90C339.2,182.5,343.1,181,347,181s7.8,1.5,10.499,4.499l90,90
	C453.5,281.199,453.5,290.799,447.499,296.499z"/>
<path style="fill:#6E77E5;" d="M447.499,296.499C444.8,299.5,440.9,301,437,301s-7.8-1.5-10.499-4.501L347,217.299V181
	c3.9,0,7.8,1.5,10.499,4.499l90,90C453.5,281.199,453.5,290.799,447.499,296.499z"/>
<rect x="60" y="30" style="fill:#00345B;" width="287" height="60"/>
<path style="fill:#004A7B;" d="M392,166c0,24.899-20.099,45-45,45s-45-20.101-45-45c0-8.401,6.599-15,15-15s15,6.599,15,15
	c0,8.399,6.599,15,15,15s15-6.601,15-15c0-8.401-6.599-15-15-15s-15-6.601-15-15V60h15c8.401,0,15,6.599,15,15v48.699
	C379.401,129.699,392,146.499,392,166z"/>
<path style="fill:#00345B;" d="M392,166c0,24.899-20.099,45-45,45v-30c8.401,0,15-6.601,15-15c0-8.401-6.599-15-15-15V60
	c8.401,0,15,6.599,15,15v48.699C379.401,129.699,392,146.499,392,166z"/>
<path style="fill:#004A7B;" d="M90,30v452H30V30C30,13.5,43.5,0,60,0S90,13.5,90,30z"/>
<path style="fill:#00345B;" d="M90,30v452H60V0C76.5,0,90,13.5,90,30z"/>
<path style="fill:#17ACE8;" d="M120,482v15c0,8.399-6.599,15-15,15H15c-8.401,0-15-6.601-15-15v-15c0-16.5,13.5-30,30-30h60
	C106.5,452,120,465.5,120,482z"/>
<path style="fill:#1689FC;" d="M120,482v15c0,8.399-6.599,15-15,15H60v-60h30C106.5,452,120,465.5,120,482z"/>
<path style="fill:#E1E4FB;" d="M512,361v106c0,24.901-20.099,45-45,45H227c-24.901,0-45-20.099-45-45V361l30-30h270L512,361z"/>
<path style="fill:#C5C9F7;" d="M467,512H347V331h135l30,30v106C512,491.901,491.901,512,467,512z"/>
<path style="fill:#FD3C65;" d="M452,301v30l-30,30H182v-45c0-24.901,20.099-45,45-45h195L452,301z"/>
<polygon style="fill:#FD003A;" points="452,301 452,331 422,361 347,361 347,271 422,271 "/>
<path style="fill:#004A7B;" d="M467,271h-45v90h90v-45C512,291.186,491.814,271,467,271z"/>
<path style="fill:#17ACE8;" d="M377,60c0,16.5-13.5,30-30,30s-30-13.5-30-30s13.5-30,30-30S377,43.5,377,60z"/>
<path style="fill:#1689FC;" d="M347,90V30c16.5,0,30,13.5,30,30S363.5,90,347,90z"/>
<g>
</g>
<g>
</g>
<g>
</g>
<g>
</g>
<g>
</g>
<g>
</g>
<g>
</g>
<g>
</g>
<g>
</g>
<g>
</g>
<g>
</g>
<g>
</g>
<g>
</g>
<g>
</g>
<g>
</g>
</svg>
