<?xml version="1.0" encoding="iso-8859-1"?>
<!-- Generator: Adobe Illustrator 19.0.0, SVG Export Plug-In . SVG Version: 6.00 Build 0)  -->
<svg version="1.1" id="Capa_1" xmlns="http://www.w3.org/2000/svg" xmlns:xlink="http://www.w3.org/1999/xlink" x="0px" y="0px"
	 viewBox="0 0 512 512" style="enable-background:new 0 0 512 512;" xml:space="preserve">
<g>
	<g>
		<polygon points="181,163.028 181,216.973 241,256.978 241,203.027 		"/>
	</g>
</g>
<g>
	<g>
		<polygon points="256,93.032 193.041,135 256,176.968 318.959,135 		"/>
	</g>
</g>
<g>
	<g>
		<polygon points="271,203.027 271,256.978 331,216.973 331,163.028 		"/>
	</g>
</g>
<g>
	<g>
		<path d="M0,362v15c0,24.814,20.186,45,45,45h160.194l-19.999,60H136c-8.291,0-15,6.709-15,15c0,8.291,6.709,15,15,15h240
			c8.291,0,15-6.709,15-15c0-8.291-6.709-15-15-15h-49.195l-19.999-60H467c24.814,0,45-20.186,45-45v-15H0z"/>
	</g>
</g>
<g>
	<g>
		<path d="M467,0H45C20.186,0,0,20.186,0,45v287h512V45C512,20.186,491.814,0,467,0z M361.001,225c0,5.01-2.505,9.697-6.68,12.48
			c-0.056,0.038-91.305,60.779-91.245,60.747c-4.319,2.317-9.662,2.408-14.15,0c-0.24-0.128-0.339-0.403-0.569-0.542
			c-5.747-3.466-84.853-56.324-90.676-60.205c-4.175-2.783-6.68-7.471-6.68-12.48v-90H151c0-5.245,3.291-10.221,6.68-12.48l90-60
			c5.039-3.369,11.602-3.369,16.641,0l90,60c3.813,2.542,6.68,7.535,6.68,12.48V225z"/>
	</g>
</g>
<g>
</g>
<g>
</g>
<g>
</g>
<g>
</g>
<g>
</g>
<g>
</g>
<g>
</g>
<g>
</g>
<g>
</g>
<g>
</g>
<g>
</g>
<g>
</g>
<g>
</g>
<g>
</g>
<g>
</g>
</svg>
