<?xml version="1.0" encoding="iso-8859-1"?>
<!-- Generator: Adobe Illustrator 19.0.0, SVG Export Plug-In . SVG Version: 6.00 Build 0)  -->
<svg version="1.1" id="Capa_1" xmlns="http://www.w3.org/2000/svg" xmlns:xlink="http://www.w3.org/1999/xlink" x="0px" y="0px"
	 viewBox="0 0 512 512" style="enable-background:new 0 0 512 512;" xml:space="preserve">
<path style="fill:#E1F1FA;" d="M512,150v317c0,24.901-20.099,45-45,45H45c-24.901,0-45-20.099-45-45V150l49.2-30h439.399L512,150z"
	/>
<path style="fill:#BFE1FF;" d="M512,150v317c0,24.901-20.099,45-45,45H256V120h232.599L512,150z"/>
<path style="fill:#0053BF;" d="M512,45v105H151l-30-27.001V30.3L151,0h316C491.901,0,512,20.099,512,45z"/>
<path style="fill:#05377F;" d="M512,45v105H256V0h211C491.901,0,512,20.099,512,45z"/>
<g>
	<path style="fill:#BFE1FF;" d="M437,90h-31c-8.291,0-15-6.709-15-15s6.709-15,15-15h31c8.291,0,15,6.709,15,15S445.291,90,437,90z"
		/>
	<path style="fill:#BFE1FF;" d="M346,90h-30c-8.291,0-15-6.709-15-15s6.709-15,15-15h30c8.291,0,15,6.709,15,15S354.291,90,346,90z"
		/>
	<path style="fill:#BFE1FF;" d="M271,75c0,8.401-6.599,15-15,15h-30c-8.401,0-15-6.599-15-15s6.599-15,15-15h30
		C264.401,60,271,66.599,271,75z"/>
	<path style="fill:#BFE1FF;" d="M256,90V60c8.401,0,15,6.599,15,15S264.401,90,256,90z"/>
</g>
<path style="fill:#B674F2;" d="M151,150H0V45C0,20.186,20.186,0,45,0h106V150z"/>
<path style="fill:#1689FC;" d="M391,347v30c0,8.401-6.599,15-15,15s-15-6.599-15-15v-30c0-8.401-6.599-15-15-15h-75v45
	c0,8.401-6.599,15-15,15s-15-6.599-15-15v-45h-75c-8.401,0-15,6.599-15,15v30c0,8.401-6.599,15-15,15s-15-6.599-15-15v-30
	c0-24.901,20.099-45,45-45h75v-46c0-8.401,6.599-15,15-15s15,6.599,15,15v46h75C370.901,302,391,322.099,391,347z"/>
<path style="fill:#136EF1;" d="M391,347v30c0,8.401-6.599,15-15,15s-15-6.599-15-15v-30c0-8.401-6.599-15-15-15h-75v45
	c0,8.401-6.599,15-15,15V241c8.401,0,15,6.599,15,15v46h75C370.901,302,391,322.099,391,347z"/>
<g>
	<path style="fill:#65B1FC;" d="M256,181c-24.901,0-45,20.099-45,45s20.099,45,45,45s45-20.099,45-45S280.901,181,256,181z"/>
	<path style="fill:#65B1FC;" d="M136,452c-24.814,0-45-20.186-45-45s20.186-45,45-45s45,20.186,45,45S160.814,452,136,452z"/>
	<path style="fill:#65B1FC;" d="M256,362c-24.901,0-45,20.099-45,45s20.099,45,45,45s45-20.099,45-45S280.901,362,256,362z"/>
</g>
<g>
	<path style="fill:#1689FC;" d="M376,452c-24.814,0-45-20.186-45-45s20.186-45,45-45s45,20.186,45,45S400.814,452,376,452z"/>
	<path style="fill:#1689FC;" d="M301,407c0,24.901-20.099,45-45,45v-90C280.901,362,301,382.099,301,407z"/>
	<path style="fill:#1689FC;" d="M256,271v-90c24.901,0,45,20.099,45,45S280.901,271,256,271z"/>
</g>
<g>
</g>
<g>
</g>
<g>
</g>
<g>
</g>
<g>
</g>
<g>
</g>
<g>
</g>
<g>
</g>
<g>
</g>
<g>
</g>
<g>
</g>
<g>
</g>
<g>
</g>
<g>
</g>
<g>
</g>
</svg>
