<svg height="512pt" viewBox="0 0 512 512" width="512pt" xmlns="http://www.w3.org/2000/svg"><path d="m136 150c-8.285156 0-15-6.714844-15-15v-120c0-8.285156 6.714844-15 15-15s15 6.714844 15 15v120c0 8.285156-6.714844 15-15 15zm0 0" fill="#b674f2"/><path d="m497 150h-482c-8.285156 0-15-6.714844-15-15s6.714844-15 15-15h482c8.285156 0 15 6.714844 15 15s-6.714844 15-15 15zm0 0" fill="#2864f0"/><g fill="#a3d4ff"><path d="m467 512h-422c-24.8125 0-45-20.1875-45-45v-422c0-24.8125 20.1875-45 45-45h422c24.8125 0 45 20.1875 45 45v422c0 24.8125-20.1875 45-45 45zm-422-482c-8.269531 0-15 6.730469-15 15v422c0 8.269531 6.730469 15 15 15h422c8.269531 0 15-6.730469 15-15v-422c0-8.269531-6.730469-15-15-15zm0 0"/><path d="m437 90h-31c-8.285156 0-15-6.714844-15-15s6.714844-15 15-15h31c8.285156 0 15 6.714844 15 15s-6.714844 15-15 15zm0 0"/><path d="m346 90h-30c-8.285156 0-15-6.714844-15-15s6.714844-15 15-15h30c8.285156 0 15 6.714844 15 15s-6.714844 15-15 15zm0 0"/><path d="m256 90h-30c-8.285156 0-15-6.714844-15-15s6.714844-15 15-15h30c8.285156 0 15 6.714844 15 15s-6.714844 15-15 15zm0 0"/></g><path d="m391 364.578125v-18.578125c0-24.8125-20.1875-45-45-45h-75v-32.578125c17.460938-6.195313 30-22.867187 30-42.421875 0-24.8125-20.1875-45-45-45s-45 20.1875-45 45c0 19.554688 12.539062 36.226562 30 42.421875v32.578125h-75c-24.8125 0-45 20.1875-45 45v18.578125c-17.460938 6.195313-30 22.867187-30 42.421875 0 24.8125 20.1875 45 45 45s45-20.1875 45-45c0-19.554688-12.539062-36.226562-30-42.421875v-18.578125c0-8.269531 6.730469-15 15-15h75v33.578125c-17.460938 6.195313-30 22.867187-30 42.421875 0 24.8125 20.1875 45 45 45s45-20.1875 45-45c0-19.554688-12.539062-36.226562-30-42.421875v-33.578125h75c8.269531 0 15 6.730469 15 15v18.578125c-17.460938 6.195313-30 22.867187-30 42.421875 0 24.8125 20.1875 45 45 45s45-20.1875 45-45c0-19.554688-12.539062-36.226562-30-42.421875zm-135-153.578125c8.269531 0 15 6.730469 15 15s-6.730469 15-15 15-15-6.730469-15-15 6.730469-15 15-15zm-120 211c-8.269531 0-15-6.730469-15-15s6.730469-15 15-15 15 6.730469 15 15-6.730469 15-15 15zm120 0c-8.269531 0-15-6.730469-15-15s6.730469-15 15-15 15 6.730469 15 15-6.730469 15-15 15zm120 0c-8.269531 0-15-6.730469-15-15s6.730469-15 15-15 15 6.730469 15 15-6.730469 15-15 15zm0 0" fill="#2864f0"/></svg>